<svg xmlns="http://www.w3.org/2000/svg" enable-background="new 0 0 256 256" viewBox="0 0 256 256" id="inventory-management">
  <g>
    <path fill="#6770e6" d="M248.897,197.574H7.129c-3.93,0-7.116-3.186-7.116-7.116V7.116C0.013,3.186,3.199,0,7.129,0h241.767
		c3.93,0,7.116,3.186,7.116,7.116v183.342C256.013,194.388,252.827,197.574,248.897,197.574z"></path>
    <path fill="#8f95e6" d="M248.897,0H7.129c-3.93,0-7.116,3.186-7.116,7.116v7C0.013,10.186,3.199,7,7.129,7h241.768
		c3.93,0,7.116,3.186,7.116,7.116v-7C256.013,3.186,252.827,0,248.897,0z"></path>
    <path fill="#69ebfc" d="M15.013,175.458V24.596c0-5.3,4.296-9.596,9.596-9.596h206.808c5.3,0,9.596,4.296,9.596,9.596v150.862
		c0,3.93-3.186,7.116-7.116,7.116H22.129C18.199,182.574,15.013,179.388,15.013,175.458z"></path>
    <rect width="60.948" height="38.435" x="98.151" y="197.574" fill="#5861c7"></rect>
    <path fill="#6770e6" d="M187.918,256H69.617c-5.52,0-9.995-4.475-9.995-9.995v0c0-5.52,4.475-9.995,9.995-9.995h118.301
		c5.52,0,9.995,4.475,9.995,9.995v0C197.913,251.525,193.438,256,187.918,256z"></path>
    <path fill="#5861c7" d="M187.918,249H69.617c-4.287,0-7.933-2.704-9.353-6.495c-0.409,1.091-0.643,2.267-0.643,3.5v0
		c0,5.52,4.475,9.995,9.995,9.995h118.301c5.52,0,9.995-4.475,9.995-9.995v0c0-1.233-0.234-2.409-0.643-3.5
		C195.851,246.296,192.205,249,187.918,249z"></path>
    <path fill="#edd4c2" d="M99.929,161.833H38.775c-2.296,0-4.157-1.861-4.157-4.157V91.971c0-2.296,1.861-4.157,4.157-4.157h61.154
		c2.296,0,4.157,1.861,4.157,4.157v65.705C104.086,159.972,102.225,161.833,99.929,161.833z"></path>
    <polygon fill="#ff8354" points="75.211 105.247 72.361 105.247 69.728 103.531 67.547 105.247 65.366 103.531 63.494 105.247 63.494 87.814 75.211 87.814"></polygon>
    <rect width="27.636" height="10.075" x="41.636" y="145.025" fill="#fff7f2"></rect>
    <rect width="4.078" height="21.639" x="53.416" y="139.243" fill="#edd4c2" transform="rotate(90 55.455 150.062)"></rect>
    <path fill="#f7ddca" d="M92.464,87.814H46.24c-1.615,0-2.924-1.309-2.924-2.924V38.666c0-1.615,1.309-2.924,2.924-2.924h46.224
		c1.615,0,2.924,1.309,2.924,2.924V84.89C95.389,86.505,94.079,87.814,92.464,87.814z"></path>
    <polygon fill="#ff8354" points="73.474 48.005 71.469 48.005 69.617 46.798 68.082 48.005 66.548 46.798 65.231 48.005 65.231 35.741 73.474 35.741"></polygon>
    <rect width="19.443" height="7.088" x="47.185" y="73.855" fill="#fff7f2"></rect>
    <rect width="2.869" height="15.224" x="55.472" y="69.787" fill="#edd4c2" transform="rotate(90 56.906 77.399)"></rect>
    <path fill="#ffefe4" d="M146.591,67.858h-24.048c-2.228,0-4.034-1.806-4.034-4.034V39.776c0-2.228,1.806-4.034,4.034-4.034h24.048
		c2.228,0,4.034,1.806,4.034,4.034v24.048C150.625,66.051,148.819,67.858,146.591,67.858z"></path>
    <path fill="#6770e6" d="M132.73 60.877c-.837 0-1.679-.272-2.385-.83l-4.744-3.752c-1.667-1.319-1.95-3.739-.632-5.406 1.318-1.667 3.739-1.95 5.406-.632l1.769 1.399 7.314-8.976c1.343-1.648 3.767-1.895 5.415-.553 1.648 1.343 1.895 3.767.553 5.415l-9.71 11.916C134.957 60.392 133.848 60.877 132.73 60.877zM216.414 56.399h-46.189c-2.54 0-4.599-2.059-4.599-4.599v0c0-2.54 2.059-4.599 4.599-4.599h46.189c2.54 0 4.599 2.059 4.599 4.599v0C221.013 54.34 218.954 56.399 216.414 56.399z"></path>
    <path fill="#ffefe4" d="M146.591,114.717h-24.048c-2.228,0-4.034-1.806-4.034-4.034V86.634c0-2.228,1.806-4.034,4.034-4.034h24.048
		c2.228,0,4.034,1.806,4.034,4.034v24.048C150.625,112.91,148.819,114.717,146.591,114.717z"></path>
    <path fill="#6770e6" d="M132.73 107.736c-.837 0-1.679-.272-2.385-.83l-4.744-3.752c-1.667-1.319-1.95-3.739-.632-5.406 1.318-1.667 3.739-1.95 5.406-.632l1.769 1.399 7.314-8.976c1.343-1.648 3.767-1.895 5.415-.553 1.648 1.343 1.895 3.767.553 5.415l-9.71 11.916C134.957 107.251 133.848 107.736 132.73 107.736zM216.414 103.258h-46.189c-2.54 0-4.599-2.059-4.599-4.599v0c0-2.54 2.059-4.599 4.599-4.599h46.189c2.54 0 4.599 2.059 4.599 4.599v0C221.013 101.198 218.954 103.258 216.414 103.258z"></path>
    <path fill="#ffefe4" d="M146.591,161.833h-24.048c-2.228,0-4.034-1.806-4.034-4.034v-24.048c0-2.228,1.806-4.034,4.034-4.034h24.048
		c2.228,0,4.034,1.806,4.034,4.034v24.048C150.625,160.027,148.819,161.833,146.591,161.833z"></path>
    <path fill="#6770e6" d="M132.73 154.852c-.837 0-1.679-.272-2.385-.83l-4.744-3.752c-1.667-1.319-1.95-3.739-.632-5.406 1.318-1.667 3.739-1.95 5.406-.632l1.769 1.399 7.314-8.976c1.343-1.648 3.767-1.895 5.415-.553 1.648 1.343 1.895 3.767.553 5.415l-9.71 11.916C134.957 154.367 133.848 154.852 132.73 154.852zM216.414 150.374h-46.189c-2.54 0-4.599-2.059-4.599-4.599v0c0-2.54 2.059-4.599 4.599-4.599h46.189c2.54 0 4.599 2.059 4.599 4.599v0C221.013 148.315 218.954 150.374 216.414 150.374z"></path>
  </g>
</svg>
